:SAMPLES-PER-SECOND 30
:FRAME-RANGE 1-4244
:FULLY-SPECIFIED
:DEGREES
2255
root  -20.1392 38.5376 -87.9185 4.0126 -11.4146 4.11224
RightUpLeg  -26.372 -10.3535 -13.3485
RightLeg  8.64416 -3.55297 -0.781996
RightFoot  -8.17005 -0.310624 9.19102
RightToes  -1.33073e-015 0 -3.6325e-017
Spine  0.74878 -2.95786 -3.45661
Spine1  6.0628 -2.15805 -2.9147
HEad  6.17868 26.0985 -6.45036
LeftShoulder1  1.01299 -0.53798 -20.1486
LeftArm  10.4754 -6.73972 -48.9216
LeftForeArm  17.9995 -16.9589 -7.28968
LeftHand  -0.158721 3.34517 8.34041
RightShoulder  0.956269 -0.44098 27.2597
RightArm  -39.8836 -10.6078 50.5725
RightForeArm  52.5661 -4.57237 -4.23739
RightHand  -0.056832 -5.12177 -20.4151
LeftUpLeg  -1.98445 2.53563 1.83942
LeftLeg  17.5457 1.55461 2.44653
LeftFoot  -18.6938 -0.411046 -8.12872
LeftToes  2.72522e-012 8.43823e-011 6.24977e-012
2256
root  -21.1904 38.2524 -86.4598 4.19258 -12.1391 4.26569
RightUpLeg  -26.0331 -9.53135 -13.8984
RightLeg  0.54563 -5.92837 -0.895262
RightFoot  -8.7449 -0.238804 7.89819
RightToes  -1.33073e-015 0 -3.6325e-017
Spine  -0.104058 -3.23135 -3.25754
Spine1  6.58629 -2.47851 -2.46612
HEad  4.51566 23.2759 -6.1167
LeftShoulder1  1.04738 -0.776897 -19.3981
LeftArm  11.0868 -8.84426 -48.031
LeftForeArm  17.849 -16.9789 -7.31245
LeftHand  -0.159074 3.32804 8.29331
RightShoulder  0.917538 -0.552175 27.1865
RightArm  -41.2669 -12.1814 50.2778
RightForeArm  51.2264 -4.455 -5.12039
RightHand  -0.0796019 -4.98577 -20.0229
LeftUpLeg  1.43419 3.36181 3.0929
LeftLeg  16.0672 0.766191 2.39345
LeftFoot  -20.0106 -0.671225 -10.4119
LeftToes  2.72522e-012 8.43823e-011 6.24977e-012
2257
root  -22.3594 37.8297 -85.0214 4.06992 -12.1426 4.67902
RightUpLeg  -26.8603 -9.88198 -14.0957
RightLeg  0.534352 -8.22513 -0.724455
RightFoot  -10.2706 -0.138876 7.37608
RightToes  -1.33073e-015 0 -3.6325e-017
Spine  -0.160459 -3.45063 -3.71486
Spine1  6.6749 -2.93364 -1.56279
HEad  2.64966 19.9095 -6.15995
LeftShoulder1  1.15961 -1.27403 -19.0409
LeftArm  11.8624 -10.2662 -47.1401
LeftForeArm  17.5473 -17.2168 -7.20308
LeftHand  -0.15942 3.22772 7.93701
RightShoulder  0.896118 -0.596392 26.923
RightArm  -42.5661 -13.2184 49.7654
RightForeArm  50.4073 -4.31072 -6.06451
RightHand  -0.0848917 -4.95644 -20.1111
LeftUpLeg  4.06865 3.19754 4.38255
LeftLeg  16.5901 -0.0428434 2.28149
LeftFoot  -21.2393 -1.02393 -13.242
LeftToes  2.72522e-012 8.43823e-011 6.24977e-012
2258
root  -23.5403 37.5446 -83.6725 4.06779 -11.7705 4.32599
RightUpLeg  -29.0952 -10.7417 -12.9819
RightLeg  8.04269 -9.12088 -1.42478
RightFoot  -7.40275 -0.268627 6.34019
RightToes  -1.33073e-015 0 -3.6325e-017
Spine  0.341097 -3.59089 -2.77558
Spine1  7.02904 -3.49606 -0.411688
HEad  0.534465 17.1929 -6.41822
LeftShoulder1  1.25508 -1.75781 -18.4673
LeftArm  12.226 -10.6166 -46.7639
LeftForeArm  17.0633 -17.5227 -7.02687
LeftHand  -0.144648 3.47086 7.98684
RightShoulder  0.840222 -0.755012 26.7624
RightArm  -43.923 -13.4087 49.3066
RightForeArm  49.7027 -4.13807 -7.14394
RightHand  -0.0334259 -5.25559 -20.551
LeftUpLeg  6.29791 1.45782 6.55088
LeftLeg  17.3526 -0.235373 1.77662
LeftFoot  -21.0661 -1.28306 -16.463
LeftToes  2.72522e-012 8.43823e-011 6.24977e-012
2259
root  -24.73 37.4579 -82.3942 4.0304 -11.5789 2.6228
RightUpLeg  -31.0799 -9.06262 -11.1166
RightLeg  15.5632 -9.24277 -3.07986
RightFoot  1.20626 -0.982243 8.99192
RightToes  -1.33073e-015 0 -3.6325e-017
Spine  1.15242 -3.45025 0.442556
Spine1  7.97799 -3.76088 0.553123
HEad  -1.60574 15.6379 -7.00318
LeftShoulder1  1.37118 -2.25559 -18.3283
LeftArm  12.1963 -10.5388 -46.3754
LeftForeArm  17.2167 -17.4656 -7.07359
LeftHand  -0.153747 3.34954 8.06291
RightShoulder  0.844413 -0.765935 27.0828
RightArm  -44.1781 -12.8675 48.4854
RightForeArm  48.2708 -4.10427 -7.54584
RightHand  0.00311647 -5.46026 -20.8187
LeftUpLeg  7.90785 -2.48321 9.75037
LeftLeg  19.4122 1.76245 1.10513
LeftFoot  -18.9387 -1.2966 -21.0145
LeftToes  2.72522e-012 8.43823e-011 6.24977e-012
2260
root  -26.0453 37.1755 -81.0704 3.63168 -12.1881 0.800171
RightUpLeg  -33.1464 -11.4386 -7.1642
RightLeg  24.4663 -4.34923 -2.37821
RightFoot  0.561654 -1.00795 9.68374
RightToes  -1.33073e-015 0 -3.6325e-017
Spine  2.2819 -3.35495 2.88885
Spine1  7.9505 -3.51829 0.575446
HEad  -2.79107 14.9857 -7.59638
LeftShoulder1  1.54959 -2.96561 -18.3889
LeftArm  10.0851 -9.29753 -46.6276
LeftForeArm  19.0752 -16.5664 -7.52991
LeftHand  -0.161846 3.24783 8.14618
RightShoulder  0.98857 -0.342433 27.2485
RightArm  -44.2199 -10.2097 47.3337
RightForeArm  49.1056 -3.97845 -8.12774
RightHand  0.0234634 -5.57455 -20.7817
LeftUpLeg  7.16273 -2.78999 13.4462
LeftLeg  27.1289 1.87551 1.39039
LeftFoot  -15.3417 -0.779231 -24.5746
LeftToes  2.72522e-012 8.43823e-011 6.24977e-012
